<svg xmlns="http://www.w3.org/2000/svg" viewBox="0 0 1696.3 306.5" xml:space="preserve">
<g transform="translate(250 0)">

	<path d="M386.5,184c0,0-1.6-0.7-1.6-0.7c-10.3-4.4-10.7-4.6-13.1-6.3c-3.4-2.4-4.5-4.2-4.5-7.3c0-5.4,4.5-8.2,13.5-8.2
		c7.9,0,13.7,1.3,23,5.4l1.4,0.6v-20.7l-0.7-0.3c-8.9-3.2-16.3-4.6-24.8-4.6c-22.9,0-36,11-36,30.1c0,14.4,6.5,22.7,23.3,29.5
		c17.8,7.4,19.5,9.3,19.5,14.7c0,6.3-5.3,9.5-15.8,9.5c-9,0-15.9-1.8-26.1-6.8l-1.5-0.7V239l0.6,0.3c9.5,4.3,17.8,6.1,28.6,6.1
		c25,0,38.8-11,38.8-30.9C411.2,199.4,404.9,191.7,386.5,184L386.5,184z"/>
	<path d="M493.6,221c-9.4,3.5-15.6,4.7-23.6,4.7c-16.5,0-23-8.8-23-31.5c0-23.7,6.3-32.5,23.1-32.5c7.8,0,14.7,1.4,22.8,4.6l1.4,0.6
		v-20.5l-0.7-0.3c-7.7-2.8-15.4-4.1-24.3-4.1c-13.8,0-25.5,3.9-33.9,11.2c-10.5,9.2-15.4,22.2-15.4,41.1c0,16,3.3,27.5,10.5,36
		c8.3,9.8,21.5,15,38,15c9.3,0,18.1-1.9,25.7-5.4l0.6-0.3v-19.2L493.6,221L493.6,221z"/>
	<path d="M570.4,144.3c0,0,0,36.5,0,38.4H535c0-1.9,0-38.4,0-38.4h-25.6v99.1H535c0,0,0-38.9,0-40.9h35.3c0,2,0,40.9,0,40.9h25.6
		v-99.1H570.4L570.4,144.3z"/>
	<path d="M640.5,223.3v-20.8c1.9,0,34,0,34,0v-19.2c0,0-32.1,0-34,0v-19c2,0,43.1,0,43.1,0v-20.1h-68.7v99.1h70.7l1.8-20.1
		C687.5,223.3,642.5,223.3,640.5,223.3L640.5,223.3z"/>
	<path d="M763.9,144.3c0,0,0,48.7,0,54.2c-3.4-4.4-41.2-54.2-41.2-54.2h-21.4v99.1H723c0,0,0-54.4,0-59.9
		c3.4,4.5,45.6,59.9,45.6,59.9h17v-99.1H763.9L763.9,144.3z"/>
	<path d="M852,191c1-1.2,37.4-46.7,37.4-46.7h-26.6c0,0-29.3,38-32.6,42.3c0-5.2,0-42.3,0-42.3h-25.5v99.1h25.5c0,0,0-36.6,0-41.9
		c3.3,4.3,32.1,41.9,32.1,41.9h30.4C892.7,243.4,853,192.2,852,191L852,191z"/>
	<path d="M927.4,223.3v-20.8c1.9,0,34.1,0,34.1,0v-19.2c0,0-32.1,0-34.1,0v-19c2,0,43.1,0,43.1,0v-20.1h-68.7v99.1h70.7l1.8-20.1
		C974.4,223.3,929.4,223.3,927.4,223.3L927.4,223.3z"/>
  <path d="M1013.8,163.4c1.7,0,11.7,0,11.7,0
			c9.9,0,13.1,2.8,13.1,11.5c0,8.7-3.6,11.9-13.1,11.9c0,0-9.9,0-11.7,0V163.4L1013.8,163.4z M1053.5,207.7
			c-2.8-4.6-5.7-7.4-8.9-9.4c13-4.2,18.8-11.6,18.8-24.7c0-19.7-12.2-29.3-37.2-29.3h-38v99.1h25.6c0,0,0-37.2,0-39.1
			c1.2,0,3.2,0,3.2,0c5.8,0,7.8,1.5,12.3,9.1l17.8,30h27.9L1053.5,207.7L1053.5,207.7z"/>
  <g fill="#E30613">
		<path d="M261.3,248.5
			c0,4.1-3,7.3-7,7.3H50.5c-4,0-7-3.3-7-7.3V121.1c0-4.1,3-7.3,7-7.3h203.8c4,0,7,3.2,7,7.3V248.5L261.3,248.5z M254.3,95.7H50.5
			c-14,0-25.6,11.1-25.6,25.4v127.4c0,14.3,11.6,25.7,25.6,25.7h203.8c14,0,25.6-11.4,25.6-25.7V121.1
			C279.9,106.8,268.3,95.7,254.3,95.7L254.3,95.7z"/>
    <path d="M121.5,186.9c0-23.5-2.4-41.9-27.8-41.9H88v79.5h10C112.8,224.5,121.5,212.6,121.5,186.9L121.5,186.9z
       M102.8,243.4H59.9V126.5h42.9c30.2,0,46.9,18.9,46.9,57.9C149.8,218.2,138.5,243.1,102.8,243.4L102.8,243.4z"/>
    <path d="M201.4,224.5h-11.5v-30h12.3c14.6,0,18.1,8.5,18.1,15C220.3,224.5,205.8,224.5,201.4,224.5L201.4,224.5z
       M189.9,144.6h8.8c12.6,0,17.6,4.4,17.6,14.1c0,7.7-5.5,14.1-15.3,14.1h-11.1V144.6L189.9,144.6z M223.9,182.3
      c8.3-2.2,20.4-11.6,20.4-27.2c0-2.4-0.5-28.5-33.4-28.5h-48.9v116.8h41.3c10.9,0,45,0,45-32.9C248.4,202.3,245.1,186.9,223.9,182.3
      L223.9,182.3z"/>
  </g>
  <g>
	  <path d="M1123.9,124.7h8.1v131.7h-8.1V124.7z"/>
  </g>
</g>
</svg>
